<svg xmlns="http://www.w3.org/2000/svg" xmlns:xlink="http://www.w3.org/1999/xlink" contentStyleType="text/css" data-diagram-type="CLASS" height="762px" preserveAspectRatio="none" style="width:424px;height:762px;background:#FFFFFF;" version="1.1" viewBox="0 0 424 762" width="424px" zoomAndPan="magnify"><defs/><g><!--cluster Pimcore--><g id="cluster_Pimcore"><path d="M16.5,4 L81.4639,4 A3.75,3.75 0 0 1 83.9639,6.5 L90.9639,26.2969 L382,26.2969 A2.5,2.5 0 0 1 384.5,28.7969 L384.5,473.5 A2.5,2.5 0 0 1 382,476 L16.5,476 A2.5,2.5 0 0 1 14,473.5 L14,6.5 A2.5,2.5 0 0 1 16.5,4 " fill="transparent" style="stroke:#000000;stroke-width:1.5;"/><line style="stroke:#000000;stroke-width:1.5;" x1="14" x2="90.9639" y1="26.2969" y2="26.2969"/><text fill="#000000" font-family="sans-serif" font-size="14" font-weight="bold" lengthAdjust="spacing" textLength="63.9639" x="18" y="18.9951">Pimcore</text></g><!--cluster Controller--><g id="cluster_Controller"><path d="M24.5,343 L104.5713,343 A3.75,3.75 0 0 1 107.0713,345.5 L114.0713,365.2969 L199.5,365.2969 A2.5,2.5 0 0 1 202,367.7969 L202,415.5 A2.5,2.5 0 0 1 199.5,418 L24.5,418 A2.5,2.5 0 0 1 22,415.5 L22,345.5 A2.5,2.5 0 0 1 24.5,343 " fill="transparent" style="stroke:#000000;stroke-width:1.5;"/><line style="stroke:#000000;stroke-width:1.5;" x1="22" x2="114.0713" y1="365.2969" y2="365.2969"/><text fill="#000000" font-family="sans-serif" font-size="14" font-weight="bold" lengthAdjust="spacing" textLength="79.0713" x="26" y="357.9951">Controller</text></g><!--cluster Model--><g id="cluster_Model"><path d="M43,31 L91.8652,31 A3.75,3.75 0 0 1 94.3652,33.5 L101.3652,53.2969 L374,53.2969 A2.5,2.5 0 0 1 376.5,55.7969 L376.5,332.5 A2.5,2.5 0 0 1 374,335 L43,335 A2.5,2.5 0 0 1 40.5,332.5 L40.5,33.5 A2.5,2.5 0 0 1 43,31 " fill="transparent" style="stroke:#000000;stroke-width:1.5;"/><line style="stroke:#000000;stroke-width:1.5;" x1="40.5" x2="101.3652" y1="53.2969" y2="53.2969"/><text fill="#000000" font-family="sans-serif" font-size="14" font-weight="bold" lengthAdjust="spacing" textLength="47.8652" x="44.5" y="45.9951">Model</text></g><!--cluster DataObject--><g id="cluster_DataObject"><path d="M51,58 L140.416,58 A3.75,3.75 0 0 1 142.916,60.5 L149.916,80.2969 L366,80.2969 A2.5,2.5 0 0 1 368.5,82.7969 L368.5,324.5 A2.5,2.5 0 0 1 366,327 L51,327 A2.5,2.5 0 0 1 48.5,324.5 L48.5,60.5 A2.5,2.5 0 0 1 51,58 " fill="transparent" style="stroke:#000000;stroke-width:1.5;"/><line style="stroke:#000000;stroke-width:1.5;" x1="48.5" x2="149.916" y1="80.2969" y2="80.2969"/><text fill="#000000" font-family="sans-serif" font-size="14" font-weight="bold" lengthAdjust="spacing" textLength="88.416" x="52.5" y="72.9951">DataObject</text></g><!--cluster Listing--><g id="cluster_Listing"><path d="M59,143 L113.5322,143 A3.75,3.75 0 0 1 116.0322,145.5 L123.0322,165.2969 L165,165.2969 A2.5,2.5 0 0 1 167.5,167.7969 L167.5,215.5 A2.5,2.5 0 0 1 165,218 L59,218 A2.5,2.5 0 0 1 56.5,215.5 L56.5,145.5 A2.5,2.5 0 0 1 59,143 " fill="transparent" style="stroke:#000000;stroke-width:1.5;"/><line style="stroke:#000000;stroke-width:1.5;" x1="56.5" x2="123.0322" y1="165.2969" y2="165.2969"/><text fill="#000000" font-family="sans-serif" font-size="14" font-weight="bold" lengthAdjust="spacing" textLength="53.5322" x="60.5" y="157.9951">Listing</text></g><!--cluster Blog--><g id="cluster_Blog"><path d="M269,160 L305.1094,160 A3.75,3.75 0 0 1 307.6094,162.5 L314.6094,182.2969 L358,182.2969 A2.5,2.5 0 0 1 360.5,184.7969 L360.5,224.5 A2.5,2.5 0 0 1 358,227 L269,227 A2.5,2.5 0 0 1 266.5,224.5 L266.5,162.5 A2.5,2.5 0 0 1 269,160 " fill="transparent" style="stroke:#000000;stroke-width:1.5;"/><line style="stroke:#000000;stroke-width:1.5;" x1="266.5" x2="314.6094" y1="182.2969" y2="182.2969"/><text fill="#000000" font-family="sans-serif" font-size="14" font-weight="bold" lengthAdjust="spacing" textLength="35.1094" x="270.5" y="174.9951">Blog</text></g><!--cluster Post--><g id="cluster_Post"><path d="M269,85 L304.9043,85 A3.75,3.75 0 0 1 307.4043,87.5 L314.4043,107.2969 L358,107.2969 A2.5,2.5 0 0 1 360.5,109.7969 L360.5,149.5 A2.5,2.5 0 0 1 358,152 L269,152 A2.5,2.5 0 0 1 266.5,149.5 L266.5,87.5 A2.5,2.5 0 0 1 269,85 " fill="transparent" style="stroke:#000000;stroke-width:1.5;"/><line style="stroke:#000000;stroke-width:1.5;" x1="266.5" x2="314.4043" y1="107.2969" y2="107.2969"/><text fill="#000000" font-family="sans-serif" font-size="14" font-weight="bold" lengthAdjust="spacing" textLength="34.9043" x="270.5" y="99.9951">Post</text></g><!--cluster App--><g id="cluster_App"><path d="M212.5,484 L244.3779,484 A3.75,3.75 0 0 1 246.8779,486.5 L253.8779,506.2969 L414.5,506.2969 A2.5,2.5 0 0 1 417,508.7969 L417,752.5 A2.5,2.5 0 0 1 414.5,755 L212.5,755 A2.5,2.5 0 0 1 210,752.5 L210,486.5 A2.5,2.5 0 0 1 212.5,484 " fill="transparent" style="stroke:#000000;stroke-width:1.5;"/><line style="stroke:#000000;stroke-width:1.5;" x1="210" x2="253.8779" y1="506.2969" y2="506.2969"/><text fill="#000000" font-family="sans-serif" font-size="14" font-weight="bold" lengthAdjust="spacing" textLength="30.8779" x="214" y="498.9951">App</text></g><!--cluster Controller--><g id="cluster_Controller"><path d="M220.5,511 L300.5713,511 A3.75,3.75 0 0 1 303.0713,513.5 L310.0713,533.2969 L406.5,533.2969 A2.5,2.5 0 0 1 409,535.7969 L409,702.5 A2.5,2.5 0 0 1 406.5,705 L220.5,705 A2.5,2.5 0 0 1 218,702.5 L218,513.5 A2.5,2.5 0 0 1 220.5,511 " fill="transparent" style="stroke:#000000;stroke-width:1.5;"/><line style="stroke:#000000;stroke-width:1.5;" x1="218" x2="310.0713" y1="533.2969" y2="533.2969"/><text fill="#000000" font-family="sans-serif" font-size="14" font-weight="bold" lengthAdjust="spacing" textLength="79.0713" x="222" y="525.9951">Controller</text></g><!--cluster Admin--><g id="cluster_Admin"><path d="M228.5,538 L279.71,538 A3.75,3.75 0 0 1 282.21,540.5 L289.21,560.2969 L398.5,560.2969 A2.5,2.5 0 0 1 401,562.7969 L401,602.5 A2.5,2.5 0 0 1 398.5,605 L228.5,605 A2.5,2.5 0 0 1 226,602.5 L226,540.5 A2.5,2.5 0 0 1 228.5,538 " fill="transparent" style="stroke:#000000;stroke-width:1.5;"/><line style="stroke:#000000;stroke-width:1.5;" x1="226" x2="289.21" y1="560.2969" y2="560.2969"/><text fill="#000000" font-family="sans-serif" font-size="14" font-weight="bold" lengthAdjust="spacing" textLength="50.21" x="230" y="552.9951">Admin</text></g><!--class Kernel__class--><g id="elem_Kernel__class"><rect codeLine="15" fill="#F1F1F1" height="40.2656" id="Kernel__class" rx="2.5" ry="2.5" style="stroke:#181818;stroke-width:0.5;" width="92.4824" x="66" y="428"/><ellipse cx="81" cy="448.1328" fill="#ADD1B2" rx="11" ry="11" style="stroke:#181818;stroke-width:1;"/><path d="M83.9688,453.7734 Q83.3906,454.0703 82.75,454.2109 Q82.1094,454.3672 81.4063,454.3672 Q78.9063,454.3672 77.5781,452.7266 Q76.2656,451.0703 76.2656,447.9453 Q76.2656,444.8203 77.5781,443.1641 Q78.9063,441.5078 81.4063,441.5078 Q82.1094,441.5078 82.75,441.6641 Q83.4063,441.8203 83.9688,442.1172 L83.9688,444.8359 Q83.3438,444.2578 82.75,443.9922 Q82.1563,443.7109 81.5313,443.7109 Q80.1875,443.7109 79.5,444.7891 Q78.8125,445.8516 78.8125,447.9453 Q78.8125,450.0391 79.5,451.1172 Q80.1875,452.1797 81.5313,452.1797 Q82.1563,452.1797 82.75,451.9141 Q83.3438,451.6328 83.9688,451.0547 L83.9688,453.7734 Z " fill="#000000"/><text fill="#000000" font-family="sans-serif" font-size="12" font-style="italic" lengthAdjust="spacing" textLength="64.4824" x="93" y="444.1387">&#171;external&#187;</text><text fill="#000000" font-family="sans-serif" font-size="14" lengthAdjust="spacing" textLength="44.9258" x="102.7783" y="459.9639">Kernel</text></g><!--class FrontendController__class--><g id="elem_FrontendController__class"><rect codeLine="23" fill="#F1F1F1" height="40.2656" id="FrontendController__class" rx="2.5" ry="2.5" style="stroke:#181818;stroke-width:0.5;" width="164.2822" x="30" y="370"/><ellipse cx="45" cy="390.1328" fill="#ADD1B2" rx="11" ry="11" style="stroke:#181818;stroke-width:1;"/><path d="M47.9688,395.7734 Q47.3906,396.0703 46.75,396.2109 Q46.1094,396.3672 45.4063,396.3672 Q42.9063,396.3672 41.5781,394.7266 Q40.2656,393.0703 40.2656,389.9453 Q40.2656,386.8203 41.5781,385.1641 Q42.9063,383.5078 45.4063,383.5078 Q46.1094,383.5078 46.75,383.6641 Q47.4063,383.8203 47.9688,384.1172 L47.9688,386.8359 Q47.3438,386.2578 46.75,385.9922 Q46.1563,385.7109 45.5313,385.7109 Q44.1875,385.7109 43.5,386.7891 Q42.8125,387.8516 42.8125,389.9453 Q42.8125,392.0391 43.5,393.1172 Q44.1875,394.1797 45.5313,394.1797 Q46.1563,394.1797 46.75,393.9141 Q47.3438,393.6328 47.9688,393.0547 L47.9688,395.7734 Z " fill="#000000"/><text fill="#000000" font-family="sans-serif" font-size="12" font-style="italic" lengthAdjust="spacing" textLength="64.4824" x="92.8999" y="386.1387">&#171;external&#187;</text><text fill="#000000" font-family="sans-serif" font-size="14" lengthAdjust="spacing" textLength="132.2822" x="59" y="401.9639">FrontendController</text></g><!--class Concrete__class--><g id="elem_Concrete__class"><rect codeLine="39" fill="#F1F1F1" height="40.2656" id="Concrete__class" rx="2.5" ry="2.5" style="stroke:#181818;stroke-width:0.5;" width="95.3828" x="64.5" y="247"/><ellipse cx="79.5" cy="267.1328" fill="#ADD1B2" rx="11" ry="11" style="stroke:#181818;stroke-width:1;"/><path d="M82.4688,272.7734 Q81.8906,273.0703 81.25,273.2109 Q80.6094,273.3672 79.9063,273.3672 Q77.4063,273.3672 76.0781,271.7266 Q74.7656,270.0703 74.7656,266.9453 Q74.7656,263.8203 76.0781,262.1641 Q77.4063,260.5078 79.9063,260.5078 Q80.6094,260.5078 81.25,260.6641 Q81.9063,260.8203 82.4688,261.1172 L82.4688,263.8359 Q81.8438,263.2578 81.25,262.9922 Q80.6563,262.7109 80.0313,262.7109 Q78.6875,262.7109 78,263.7891 Q77.3125,264.8516 77.3125,266.9453 Q77.3125,269.0391 78,270.1172 Q78.6875,271.1797 80.0313,271.1797 Q80.6563,271.1797 81.25,270.9141 Q81.8438,270.6328 82.4688,270.0547 L82.4688,272.7734 Z " fill="#000000"/><text fill="#000000" font-family="sans-serif" font-size="12" font-style="italic" lengthAdjust="spacing" textLength="64.4824" x="92.9502" y="263.1387">&#171;external&#187;</text><text fill="#000000" font-family="sans-serif" font-size="14" lengthAdjust="spacing" textLength="63.3828" x="93.5" y="278.9639">Concrete</text></g><!--class Blog__class--><g id="elem_Blog__class"><rect codeLine="43" fill="#F1F1F1" height="32" id="Blog__class" rx="2.5" ry="2.5" style="stroke:#181818;stroke-width:0.5;" width="62.9463" x="282" y="287"/><ellipse cx="297" cy="303" fill="#ADD1B2" rx="11" ry="11" style="stroke:#181818;stroke-width:1;"/><path d="M299.9688,308.6406 Q299.3906,308.9375 298.75,309.0781 Q298.1094,309.2344 297.4063,309.2344 Q294.9063,309.2344 293.5781,307.5938 Q292.2656,305.9375 292.2656,302.8125 Q292.2656,299.6875 293.5781,298.0313 Q294.9063,296.375 297.4063,296.375 Q298.1094,296.375 298.75,296.5313 Q299.4063,296.6875 299.9688,296.9844 L299.9688,299.7031 Q299.3438,299.125 298.75,298.8594 Q298.1563,298.5781 297.5313,298.5781 Q296.1875,298.5781 295.5,299.6563 Q294.8125,300.7188 294.8125,302.8125 Q294.8125,304.9063 295.5,305.9844 Q296.1875,307.0469 297.5313,307.0469 Q298.1563,307.0469 298.75,306.7813 Q299.3438,306.5 299.9688,305.9219 L299.9688,308.6406 Z " fill="#000000"/><text fill="#000000" font-family="sans-serif" font-size="14" lengthAdjust="spacing" textLength="30.9463" x="311" y="307.8467">Blog</text></g><!--class Post__class--><g id="elem_Post__class"><rect codeLine="47" fill="#F1F1F1" height="32" id="Post__class" rx="2.5" ry="2.5" style="stroke:#181818;stroke-width:0.5;" width="61.791" x="282.5" y="237"/><ellipse cx="297.5" cy="253" fill="#ADD1B2" rx="11" ry="11" style="stroke:#181818;stroke-width:1;"/><path d="M300.4688,258.6406 Q299.8906,258.9375 299.25,259.0781 Q298.6094,259.2344 297.9063,259.2344 Q295.4063,259.2344 294.0781,257.5938 Q292.7656,255.9375 292.7656,252.8125 Q292.7656,249.6875 294.0781,248.0313 Q295.4063,246.375 297.9063,246.375 Q298.6094,246.375 299.25,246.5313 Q299.9063,246.6875 300.4688,246.9844 L300.4688,249.7031 Q299.8438,249.125 299.25,248.8594 Q298.6563,248.5781 298.0313,248.5781 Q296.6875,248.5781 296,249.6563 Q295.3125,250.7188 295.3125,252.8125 Q295.3125,254.9063 296,255.9844 Q296.6875,257.0469 298.0313,257.0469 Q298.6563,257.0469 299.25,256.7813 Q299.8438,256.5 300.4688,255.9219 L300.4688,258.6406 Z " fill="#000000"/><text fill="#000000" font-family="sans-serif" font-size="14" lengthAdjust="spacing" textLength="29.791" x="311.5" y="257.8467">Post</text></g><!--class Concrete__class--><g id="elem_Concrete__class"><rect codeLine="51" fill="#F1F1F1" height="40.2656" id="Concrete__class" rx="2.5" ry="2.5" style="stroke:#181818;stroke-width:0.5;" width="95.3828" x="64.5" y="170"/><ellipse cx="79.5" cy="190.1328" fill="#ADD1B2" rx="11" ry="11" style="stroke:#181818;stroke-width:1;"/><path d="M82.4688,195.7734 Q81.8906,196.0703 81.25,196.2109 Q80.6094,196.3672 79.9063,196.3672 Q77.4063,196.3672 76.0781,194.7266 Q74.7656,193.0703 74.7656,189.9453 Q74.7656,186.8203 76.0781,185.1641 Q77.4063,183.5078 79.9063,183.5078 Q80.6094,183.5078 81.25,183.6641 Q81.9063,183.8203 82.4688,184.1172 L82.4688,186.8359 Q81.8438,186.2578 81.25,185.9922 Q80.6563,185.7109 80.0313,185.7109 Q78.6875,185.7109 78,186.7891 Q77.3125,187.8516 77.3125,189.9453 Q77.3125,192.0391 78,193.1172 Q78.6875,194.1797 80.0313,194.1797 Q80.6563,194.1797 81.25,193.9141 Q81.8438,193.6328 82.4688,193.0547 L82.4688,195.7734 Z " fill="#000000"/><text fill="#000000" font-family="sans-serif" font-size="12" font-style="italic" lengthAdjust="spacing" textLength="64.4824" x="92.9502" y="186.1387">&#171;external&#187;</text><text fill="#000000" font-family="sans-serif" font-size="14" lengthAdjust="spacing" textLength="63.3828" x="93.5" y="201.9639">Concrete</text></g><!--class Listing__class--><g id="elem_Listing__class"><rect codeLine="55" fill="#F1F1F1" height="32" id="Listing__class" rx="2.5" ry="2.5" style="stroke:#181818;stroke-width:0.5;" width="78.1221" x="274.5" y="187"/><ellipse cx="289.5" cy="203" fill="#ADD1B2" rx="11" ry="11" style="stroke:#181818;stroke-width:1;"/><path d="M292.4688,208.6406 Q291.8906,208.9375 291.25,209.0781 Q290.6094,209.2344 289.9063,209.2344 Q287.4063,209.2344 286.0781,207.5938 Q284.7656,205.9375 284.7656,202.8125 Q284.7656,199.6875 286.0781,198.0313 Q287.4063,196.375 289.9063,196.375 Q290.6094,196.375 291.25,196.5313 Q291.9063,196.6875 292.4688,196.9844 L292.4688,199.7031 Q291.8438,199.125 291.25,198.8594 Q290.6563,198.5781 290.0313,198.5781 Q288.6875,198.5781 288,199.6563 Q287.3125,200.7188 287.3125,202.8125 Q287.3125,204.9063 288,205.9844 Q288.6875,207.0469 290.0313,207.0469 Q290.6563,207.0469 291.25,206.7813 Q291.8438,206.5 292.4688,205.9219 L292.4688,208.6406 Z " fill="#000000"/><text fill="#000000" font-family="sans-serif" font-size="14" lengthAdjust="spacing" textLength="46.1221" x="303.5" y="207.8467">Listing</text></g><!--class Listing__class--><g id="elem_Listing__class"><rect codeLine="59" fill="#F1F1F1" height="32" id="Listing__class" rx="2.5" ry="2.5" style="stroke:#181818;stroke-width:0.5;" width="78.1221" x="274.5" y="112"/><ellipse cx="289.5" cy="128" fill="#ADD1B2" rx="11" ry="11" style="stroke:#181818;stroke-width:1;"/><path d="M292.4688,133.6406 Q291.8906,133.9375 291.25,134.0781 Q290.6094,134.2344 289.9063,134.2344 Q287.4063,134.2344 286.0781,132.5938 Q284.7656,130.9375 284.7656,127.8125 Q284.7656,124.6875 286.0781,123.0313 Q287.4063,121.375 289.9063,121.375 Q290.6094,121.375 291.25,121.5313 Q291.9063,121.6875 292.4688,121.9844 L292.4688,124.7031 Q291.8438,124.125 291.25,123.8594 Q290.6563,123.5781 290.0313,123.5781 Q288.6875,123.5781 288,124.6563 Q287.3125,125.7188 287.3125,127.8125 Q287.3125,129.9063 288,130.9844 Q288.6875,132.0469 290.0313,132.0469 Q290.6563,132.0469 291.25,131.7813 Q291.8438,131.5 292.4688,130.9219 L292.4688,133.6406 Z " fill="#000000"/><text fill="#000000" font-family="sans-serif" font-size="14" lengthAdjust="spacing" textLength="46.1221" x="303.5" y="132.8467">Listing</text></g><!--class Kernel__class--><g id="elem_Kernel__class"><rect codeLine="19" fill="#F1F1F1" height="32" id="Kernel__class" rx="2.5" ry="2.5" style="stroke:#181818;stroke-width:0.5;" width="76.9258" x="275" y="715"/><ellipse cx="290" cy="731" fill="#ADD1B2" rx="11" ry="11" style="stroke:#181818;stroke-width:1;"/><path d="M292.9688,736.6406 Q292.3906,736.9375 291.75,737.0781 Q291.1094,737.2344 290.4063,737.2344 Q287.9063,737.2344 286.5781,735.5938 Q285.2656,733.9375 285.2656,730.8125 Q285.2656,727.6875 286.5781,726.0313 Q287.9063,724.375 290.4063,724.375 Q291.1094,724.375 291.75,724.5313 Q292.4063,724.6875 292.9688,724.9844 L292.9688,727.7031 Q292.3438,727.125 291.75,726.8594 Q291.1563,726.5781 290.5313,726.5781 Q289.1875,726.5781 288.5,727.6563 Q287.8125,728.7188 287.8125,730.8125 Q287.8125,732.9063 288.5,733.9844 Q289.1875,735.0469 290.5313,735.0469 Q291.1563,735.0469 291.75,734.7813 Q292.3438,734.5 292.9688,733.9219 L292.9688,736.6406 Z " fill="#000000"/><text fill="#000000" font-family="sans-serif" font-size="14" lengthAdjust="spacing" textLength="44.9258" x="304" y="735.8467">Kernel</text></g><!--class BlogController__class--><g id="elem_BlogController__class"><rect codeLine="27" fill="#F1F1F1" height="32" id="BlogController__class" rx="2.5" ry="2.5" style="stroke:#181818;stroke-width:0.5;" width="132.1191" x="247.5" y="615"/><ellipse cx="262.5" cy="631" fill="#ADD1B2" rx="11" ry="11" style="stroke:#181818;stroke-width:1;"/><path d="M265.4688,636.6406 Q264.8906,636.9375 264.25,637.0781 Q263.6094,637.2344 262.9063,637.2344 Q260.4063,637.2344 259.0781,635.5938 Q257.7656,633.9375 257.7656,630.8125 Q257.7656,627.6875 259.0781,626.0313 Q260.4063,624.375 262.9063,624.375 Q263.6094,624.375 264.25,624.5313 Q264.9063,624.6875 265.4688,624.9844 L265.4688,627.7031 Q264.8438,627.125 264.25,626.8594 Q263.6563,626.5781 263.0313,626.5781 Q261.6875,626.5781 261,627.6563 Q260.3125,628.7188 260.3125,630.8125 Q260.3125,632.9063 261,633.9844 Q261.6875,635.0469 263.0313,635.0469 Q263.6563,635.0469 264.25,634.7813 Q264.8438,634.5 265.4688,633.9219 L265.4688,636.6406 Z " fill="#000000"/><text fill="#000000" font-family="sans-serif" font-size="14" lengthAdjust="spacing" textLength="100.1191" x="276.5" y="635.8467">BlogController</text></g><!--class DefaultController__class--><g id="elem_DefaultController__class"><rect codeLine="31" fill="#F1F1F1" height="32" id="DefaultController__class" rx="2.5" ry="2.5" style="stroke:#181818;stroke-width:0.5;" width="152.3262" x="237.5" y="665"/><ellipse cx="252.5" cy="681" fill="#ADD1B2" rx="11" ry="11" style="stroke:#181818;stroke-width:1;"/><path d="M255.4688,686.6406 Q254.8906,686.9375 254.25,687.0781 Q253.6094,687.2344 252.9063,687.2344 Q250.4063,687.2344 249.0781,685.5938 Q247.7656,683.9375 247.7656,680.8125 Q247.7656,677.6875 249.0781,676.0313 Q250.4063,674.375 252.9063,674.375 Q253.6094,674.375 254.25,674.5313 Q254.9063,674.6875 255.4688,674.9844 L255.4688,677.7031 Q254.8438,677.125 254.25,676.8594 Q253.6563,676.5781 253.0313,676.5781 Q251.6875,676.5781 251,677.6563 Q250.3125,678.7188 250.3125,680.8125 Q250.3125,682.9063 251,683.9844 Q251.6875,685.0469 253.0313,685.0469 Q253.6563,685.0469 254.25,684.7813 Q254.8438,684.5 255.4688,683.9219 L255.4688,686.6406 Z " fill="#000000"/><text fill="#000000" font-family="sans-serif" font-size="14" lengthAdjust="spacing" textLength="120.3262" x="266.5" y="685.8467">DefaultController</text></g><!--class SettingsController__class--><g id="elem_SettingsController__class"><rect codeLine="35" fill="#F1F1F1" height="32" id="SettingsController__class" rx="2.5" ry="2.5" style="stroke:#181818;stroke-width:0.5;" width="158.5947" x="234" y="565"/><ellipse cx="249" cy="581" fill="#ADD1B2" rx="11" ry="11" style="stroke:#181818;stroke-width:1;"/><path d="M251.9688,586.6406 Q251.3906,586.9375 250.75,587.0781 Q250.1094,587.2344 249.4063,587.2344 Q246.9063,587.2344 245.5781,585.5938 Q244.2656,583.9375 244.2656,580.8125 Q244.2656,577.6875 245.5781,576.0313 Q246.9063,574.375 249.4063,574.375 Q250.1094,574.375 250.75,574.5313 Q251.4063,574.6875 251.9688,574.9844 L251.9688,577.7031 Q251.3438,577.125 250.75,576.8594 Q250.1563,576.5781 249.5313,576.5781 Q248.1875,576.5781 247.5,577.6563 Q246.8125,578.7188 246.8125,580.8125 Q246.8125,582.9063 247.5,583.9844 Q248.1875,585.0469 249.5313,585.0469 Q250.1563,585.0469 250.75,584.7813 Q251.3438,584.5 251.9688,583.9219 L251.9688,586.6406 Z " fill="#000000"/><text fill="#000000" font-family="sans-serif" font-size="14" lengthAdjust="spacing" textLength="126.5947" x="263" y="585.8467">SettingsController</text></g><polygon fill="transparent" points="114.1786,468.3079,109.6565,486.7348,121.6171,485.7627,114.1786,468.3079" style="stroke:#516F42;stroke-width:1;"/><path d="M115.6368,486.2487 C119.6494,535.6166 135.6029,644.6388 210,709 C227.7562,724.361 253.6444,729.8272 274.9605,731.4703 " fill="transparent" style="stroke:#516F42;stroke-width:1;"/><polygon fill="transparent" points="194.2635,406.3077,204.5845,422.2287,212.0729,412.8519,194.2635,406.3077" style="stroke:#516F42;stroke-width:1;"/><path d="M208.3287,417.5403 C221.866,434.4806 196.0271,592.4171 210,609 C219.4407,620.2042 233.0794,626.5374 247.3424,629.9551 " fill="transparent" style="stroke:#516F42;stroke-width:1;"/><polygon fill="transparent" points="194.292,406.2851,204.5713,422.233,212.0842,412.8758,194.292,406.2851" style="stroke:#516F42;stroke-width:1;"/><path d="M208.3277,417.5544 C225.0392,438.6383 193.035,635.1196 210,656 C217.1612,664.814 226.8658,670.825 237.4618,674.8739 " fill="transparent" style="stroke:#516F42;stroke-width:1;"/><polygon fill="transparent" points="194.261,409.0498,206.9447,423.1609,212.8746,412.7285,194.261,409.0498" style="stroke:#516F42;stroke-width:1;"/><path d="M209.9097,417.9447 C265.4575,458.007 293.0398,531.36 306.4489,564.8615 " fill="transparent" style="stroke:#516F42;stroke-width:1;"/><polygon fill="transparent" points="159.5221,275.395,176.1705,284.4961,178.3015,272.6868,159.5221,275.395" style="stroke:#516F42;stroke-width:1;"/><path d="M177.236,278.5915 C214.8861,285.3855 249.1302,291.5648 281.7624,297.4534 " fill="transparent" style="stroke:#516F42;stroke-width:1;"/><polygon fill="transparent" points="159.5221,263.7353,177.898,268.4605,177.0579,256.49,159.5221,263.7353" style="stroke:#516F42;stroke-width:1;"/><path d="M177.4779,262.4752 C215.3584,259.817 249.7663,257.4024 282.3589,255.1152 " fill="transparent" style="stroke:#516F42;stroke-width:1;"/><polygon fill="transparent" points="159.5221,193.0315,177.0939,200.1893,177.8742,188.2147,159.5221,193.0315" style="stroke:#516F42;stroke-width:1;"/><path d="M177.484,194.202 C212.3708,196.4753 241.5804,198.3787 274.2783,200.5094 " fill="transparent" style="stroke:#516F42;stroke-width:1;"/><polygon fill="transparent" points="159.6488,172.9011,178.6193,172.551,174.6151,161.2387,159.6488,172.9011" style="stroke:#516F42;stroke-width:1;"/><path d="M176.6172,166.8949 C192.5129,161.2683 193.4734,161.1467 210,156 C231.1354,149.418 254.9784,142.8543 274.3465,137.738 " fill="transparent" style="stroke:#516F42;stroke-width:1;"/><!--SRC=[nPF1Rjim38RlUWgkVO8Dsqv5WRJ1Bjkm0hqAA5YBTjHAea4nQuEYxpxRSTBQITi4wpAVP9Bw_qyKzQ4Mh292m0NF5N8anOG60FAjJpKAHfY8yDqv1nOu_lBnQ_dvqp2FXVhVNXTdB8vabq8iRYlXUN9zSTbzsukd7YCdjxFugduNZpn3ntS-LL1Yo6JCowcdJF29T54JiEYCpSmx0egrBY1Il2R99b2fe0pYgvc2yq8D6oUJII5Xf5nZGPVKocc3Pgqnwp1S-5Ym43oqg504p1cElfCa2aU06PRBgwjbvkG4w5wR40OuFLtkUJIFp_GcTTrhlIa6dLPokK7gCQmTbMopMDUUSrBX44Y6-D-aIL1x5QjyvxuPtkjOM_nMXcU1gv7PCFJgaP_Ah7sP4VR7cbA9yw0ZieteWU2idRZequZnabIRiSyZoCtmlw9SQ_naHy7QAIh-khvftj1mg1gvGaYfmrlzx3v0RzeydwNr1Brww0sbhWy3BlWhb0lEsg6qYmEZMFl3vtO43dGBrhRz7ZMWH-ZC-lM-RUYtlKC_saluFtn_0000]--></g></svg>